<svg xmlns="http://www.w3.org/2000/svg" version="1.1" xmlns:xlink="http://www.w3.org/1999/xlink" xmlns:svgjs="http://svgjs.dev/svgjs" width="1000" height="625" viewBox="0 0 1000 625"><g transform="matrix(1,0,0,1,0,0)"><svg viewBox="0 0 512 320" data-background-color="#ffffff" preserveAspectRatio="xMidYMid meet" height="625" width="1000" xmlns="http://www.w3.org/2000/svg" xmlns:xlink="http://www.w3.org/1999/xlink"><g id="tight-bounds" transform="matrix(1,0,0,1,0,0)"><svg viewBox="0 0 512 320" height="320" width="512"><g><svg></svg></g><g><svg viewBox="0 0 512 320" height="320" width="512"><g><path d="M96 160c0-88.366 71.634-160 160-160 88.366 0 160 71.634 160 160 0 88.366-71.634 160-160 160-88.366 0-160-71.634-160-160zM256 315.541c85.903 0 155.541-69.638 155.541-155.541 0-85.903-69.638-155.541-155.541-155.541-85.903 0-155.541 69.638-155.541 155.541 0 85.903 69.638 155.541 155.541 155.541z" fill="#2f8fe3" fill-rule="nonzero" stroke="none" stroke-width="1" stroke-linecap="butt" stroke-linejoin="miter" stroke-miterlimit="10" stroke-dasharray="" stroke-dashoffset="0" font-family="none" font-weight="none" font-size="none" text-anchor="none" style="mix-blend-mode: normal" data-fill-palette-color="tertiary"></path></g><g transform="matrix(1,0,0,1,170.4350873043478,97.51088)"><svg viewBox="0 0 171.12982539130437 124.97824" height="124.97824" width="171.12982539130437"><g><svg viewBox="0 0 171.12982539130437 124.97824" height="124.97824" width="171.12982539130437"><g><svg viewBox="0 0 171.12982539130437 124.97824" height="124.97824" width="171.12982539130437"><g><path d="M0 124.978v-124.978h171.13v124.978z" fill="#2f8fe3" stroke="transparent" stroke-width="0" rx="0%" data-fill-palette-color="tertiary"></path><path d="M2.918 122.06v-119.142h165.293v119.142z" fill="#ffffff" stroke="transparent" stroke-width="0" rx="0%" data-fill-palette-color="quaternary"></path><path d="M8.755 116.223v-107.468h153.619v107.468z" fill="#2f8fe3" stroke="transparent" stroke-width="0" data-fill-palette-color="tertiary"></path></g><g transform="matrix(1,0,0,1,17.51088,17.51088)" id="textblocktransform"><svg viewBox="0 0 136.10806539130436 89.95648" height="89.95648" width="136.10806539130436" id="textblock"><g><svg viewBox="0 0 136.10806539130436 89.95648" height="89.95648" width="136.10806539130436"><g transform="matrix(1,0,0,1,0,0)"><svg width="136.10806539130436" viewBox="4 -39.95 60.900000000000006 40.25" height="89.95648" data-palette-color="#ffffff"><path d="M25.15-2.1L25.15-37.55Q25.15-39.95 28.1-39.95L28.1-39.95Q31.1-39.95 31.1-37.55L31.1-37.55 31.1-2.1Q31.1 0.3 28.1 0.3L28.1 0.3Q25.15 0.3 25.15-2.1L25.15-2.1ZM9.95-37.55L9.95-2.1Q9.95 0.3 6.95 0.3L6.95 0.3Q4 0.3 4-2.1L4-2.1 4-37.55Q4-39.95 6.95-39.95L6.95-39.95Q9.95-39.95 9.95-37.55L9.95-37.55ZM21.65-20.65L21.65-20.65Q21.65-18.9 20.45-17.7 19.25-16.5 17.5-16.5L17.5-16.5Q15.8-16.5 14.6-17.7 13.4-18.9 13.4-20.65L13.4-20.65Q13.4-22.4 14.6-23.6 15.8-24.8 17.5-24.8L17.5-24.8Q19.25-24.8 20.45-23.6 21.65-22.4 21.65-20.65ZM58.95-8.4L58.95-18.05Q58.95-20.5 61.95-20.5L61.95-20.5Q64.9-20.5 64.9-18.15L64.9-18.15 64.9-8Q64.9-3.95 62.2-1.95L62.2-1.95Q60.9-1 59.52-0.48 58.15 0.05 56.85 0.05L56.85 0.05 46.45 0.05Q45.15 0.05 43.77-0.48 42.4-1 41.1-1.95L41.1-1.95Q39.8-2.95 39.1-4.42 38.4-5.9 38.4-8L38.4-8 38.4-31.75Q38.4-33.8 39.12-35.3 39.85-36.8 41.1-37.75L41.1-37.75 41.05-37.75Q42.35-38.6 43.75-39.15 45.15-39.7 46.45-39.7L46.45-39.7 56.35-39.7Q57.65-39.7 59.05-39.15 60.45-38.6 61.75-37.75L61.75-37.75 61.7-37.75Q64.35-35.8 64.35-31.75L64.35-31.75 64.35-28.3Q64.35-25.9 61.4-25.9L61.4-25.9Q58.45-25.9 58.45-28.3L58.45-28.3 58.45-31.3Q58.45-32.55 57.7-33.6 56.95-34.65 55.1-34.65L55.1-34.65 47.75-34.65Q45.85-34.65 45.1-33.6 44.35-32.55 44.35-31.3L44.35-31.3 44.35-8.4Q44.35-7.75 44.52-7.15 44.7-6.55 45.1-6.08 45.5-5.6 46.15-5.3 46.8-5 47.75-5L47.75-5 55.6-5Q57.45-5 58.2-6.05 58.95-7.1 58.95-8.4L58.95-8.4ZM56.6-18.6L56.6-18.6Q56.6-17.75 56.27-16.98 55.95-16.2 55.37-15.65 54.8-15.1 54.05-14.78 53.3-14.45 52.4-14.45L52.4-14.45Q50.7-14.45 49.5-15.65 48.3-16.85 48.3-18.6L48.3-18.6Q48.3-20.3 49.5-21.5 50.7-22.7 52.4-22.7L52.4-22.7Q53.3-22.7 54.05-22.38 54.8-22.05 55.37-21.5 55.95-20.95 56.27-20.2 56.6-19.45 56.6-18.6Z" opacity="1" transform="matrix(1,0,0,1,0,0)" fill="#ffffff" class="wordmark-text-0" data-fill-palette-color="quaternary" id="text-0"></path></svg></g></svg></g></svg></g></svg></g><g></g></svg></g></svg></g></svg></g><defs></defs></svg><rect width="512" height="320" fill="none" stroke="none" visibility="hidden"></rect></g></svg></g></svg>